# Blender v2.83.0 OBJ File: 'ROCK.blend'
# www.blender.org
mtllib ROCK.mtl
o ROCKS_Cube.004
v -0.526321 1.189645 1.478266
v 0.598771 1.609501 0.275396
v -0.481432 1.287027 0.643291
v 1.285871 1.255151 0.882745
v -0.618137 0.359904 0.917740
v 0.632693 -0.315232 1.408070
v 1.053141 0.110001 0.223482
v 0.985039 1.237089 0.018937
v 1.429320 0.097988 0.592534
v -0.416269 1.660588 1.450137
v -0.492244 0.074775 1.976117
v 0.347366 0.289170 -0.073674
v 0.566844 1.670624 1.894629
v -0.060565 1.333691 2.107341
v -0.282460 0.222180 0.163970
v 0.332495 0.812081 -0.328096
v -0.269584 1.335910 0.226782
v 0.832361 1.173556 1.910254
v -0.348465 0.750313 1.534039
v 1.028515 0.715825 0.321877
v 1.265773 0.774849 1.014559
v -0.035999 -0.217112 0.695599
v 0.687518 0.452195 1.879512
v 1.099094 0.151097 1.559157
v 0.717740 1.812634 1.172089
v 0.298727 1.613774 -1.443502
v -0.265883 1.400555 -0.535574
v 1.319997 1.259744 -1.344301
v 0.119753 0.616052 0.374395
v 1.388785 -0.258029 -0.218334
v 0.945814 -0.109289 -1.665803
v 0.598125 1.908420 0.624195
v -0.142537 0.027193 -0.230805
v 1.151445 0.420624 1.373030
v 1.786900 0.470766 0.067869
v 1.499233 1.652511 0.992150
v -0.392325 0.500302 -1.518069
v 1.914964 1.571391 0.123500
v 0.258348 1.132774 -1.833264
v 1.490047 0.427218 -1.068125
v 1.443519 2.074109 -0.323678
v 0.704055 0.633196 -1.193608
v 1.592300 -0.185636 -2.232908
v 0.868929 -0.209485 -1.401625
v 2.046130 0.684367 -2.181427
v 1.122681 0.081020 -0.582749
v 2.700066 0.089887 -1.284481
v 2.173623 1.014032 -0.621143
v 2.142984 -0.248365 -2.161416
v 2.831703 0.533589 -1.423582
v 0.446858 0.469637 -1.649484
v 1.002826 1.079484 -0.314745
v 2.202212 -0.432596 -1.116874
v 0.979111 1.298455 -2.002571
v 0.642962 1.193791 -1.497404
v 1.704816 -0.444903 -0.717847
v 2.017410 -0.716812 -1.528666
v 1.151741 -0.506119 -1.584628
v 1.472268 1.310098 -1.854744
v 2.331554 0.083269 -1.735301
v 1.921556 0.147965 -0.442275
v 1.677624 1.351251 -1.201961
v 2.220133 1.261240 -1.198641
v 1.263759 0.608311 -2.360521
v 0.210732 0.483217 -1.795426
v -0.360381 1.382679 -1.321474
v -0.843773 -0.211622 -0.969908
v -1.679084 1.550741 -0.358110
v -2.476048 -0.137308 -1.567234
v 0.441731 1.434932 0.105907
v -2.667053 1.302263 -0.979830
v -2.090765 1.418971 1.132015
v 0.334709 1.042486 0.860142
v -1.335435 0.767395 -2.288811
v -0.050846 0.364517 0.538768
v -0.524165 0.269990 -2.145064
v 0.796422 0.412149 -0.278845
v -2.765409 0.264538 0.228391
v 0.834271 0.113982 -2.198234
v -0.065905 0.591516 -1.501186
v -0.261166 0.180848 -1.909736
v 0.361780 -0.362734 -2.048800
v 0.987607 0.272185 -1.349227
v 0.678159 0.961375 -1.673450
v 0.307960 0.430776 -2.438880
v 0.493852 -0.214595 -1.314647
vt 0.787783 0.359530
vt 0.769594 0.331534
vt 0.831418 0.332282
vt 0.824773 0.738119
vt 0.841748 0.668964
vt 0.929373 0.722146
vt 0.820569 0.450946
vt 0.917091 0.489348
vt 0.819476 0.515089
vt 0.780608 0.278714
vt 0.851977 0.233463
vt 0.176690 0.765952
vt 0.110831 0.764532
vt 0.145338 0.702303
vt 0.882434 0.097754
vt 0.794707 0.096489
vt 0.817753 0.033784
vt 0.724104 0.502100
vt 0.671696 0.515045
vt 0.670072 0.447242
vt 0.183633 0.726511
vt 0.484279 0.386080
vt 0.488104 0.345409
vt 0.512593 0.389537
vt 0.928330 0.446216
vt 0.888147 0.194655
vt 0.828471 0.178126
vt 0.846562 0.142618
vt 0.901516 0.247224
vt 0.088915 0.805847
vt 0.140270 0.796137
vt 0.047066 0.797833
vt 0.762894 0.384103
vt 0.797851 0.462454
vt 0.722754 0.397932
vt 0.562154 0.936768
vt 0.602034 0.921248
vt 0.567760 0.972159
vt 0.917060 0.327842
vt 0.917060 0.378222
vt 0.890191 0.331051
vt 0.793778 0.565835
vt 0.793278 0.952398
vt 0.808072 0.925291
vt 0.825883 0.966291
vt 0.251805 0.694338
vt 0.204281 0.686479
vt 0.208529 0.633404
vt 0.874081 0.576948
vt 0.925299 0.603071
vt 0.851965 0.597085
vt 0.873306 0.530234
vt 0.822387 0.217225
vt 0.056083 0.736709
vt 0.775395 0.065620
vt 0.807047 0.690570
vt 0.508704 0.433347
vt 0.034333 0.706046
vt 0.068978 0.650438
vt 0.105430 0.676069
vt 0.768311 0.167641
vt 0.806984 0.230420
vt 0.913004 0.392805
vt 0.841430 0.388367
vt 0.137901 0.661261
vt 0.346427 0.424893
vt 0.319776 0.523025
vt 0.268076 0.470769
vt 0.904161 0.122376
vt 0.896863 0.074794
vt 0.974100 0.119684
vt 0.282206 0.531406
vt 0.298220 0.607634
vt 0.100246 0.369585
vt 0.159586 0.464478
vt 0.036369 0.468485
vt 0.317648 0.365123
vt 0.443855 0.352502
vt 0.650288 0.569664
vt 0.594498 0.633551
vt 0.524699 0.569838
vt 0.201024 0.640788
vt 0.129204 0.538725
vt 0.414704 0.566671
vt 0.691029 0.959620
vt 0.671144 0.840026
vt 0.761515 0.824842
vt 0.131592 0.937812
vt 0.192620 0.911208
vt 0.185427 0.977587
vt 0.946266 0.032168
vt 0.569566 0.453803
vt 0.657217 0.385022
vt 0.428787 0.427166
vt 0.471046 0.530419
vt 0.411108 0.613057
vt 0.695132 0.774534
vt 0.506997 0.673014
vt 0.499814 0.769874
vt 0.415738 0.635250
vt 0.480666 0.398464
vt 0.050225 0.589997
vt 0.424560 0.766719
vt 0.769765 0.964972
vt 0.132601 0.842108
vt 0.164722 0.832254
vt 0.145253 0.902507
vt 0.819028 0.914092
vt 0.843333 0.849386
vt 0.921705 0.885533
vt 0.349570 0.868585
vt 0.268067 0.900651
vt 0.303698 0.816118
vt 0.208355 0.859666
vt 0.218080 0.901928
vt 0.442352 0.819596
vt 0.477499 0.857790
vt 0.415134 0.904086
vt 0.398424 0.801813
vt 0.308986 0.774438
vt 0.329999 0.712089
vt 0.275411 0.724249
vt 0.274251 0.679780
vt 0.405471 0.833359
vt 0.931948 0.619412
vt 0.934033 0.575433
vt 0.964962 0.596707
vt 0.064681 0.923396
vt 0.064681 0.970718
vt 0.029365 0.929619
vt 0.631045 0.718390
vt 0.572733 0.658686
vt 0.633701 0.654758
vt 0.943081 0.300304
vt 0.970961 0.263670
vt 0.965181 0.304500
vt 0.920156 0.261343
vt 0.364534 0.633344
vt 0.406982 0.676128
vt 0.332242 0.636770
vt 0.525090 0.971097
vt 0.514314 0.921232
vt 0.558977 0.966555
vt 0.571577 0.770677
vt 0.519756 0.765859
vt 0.557230 0.705088
vt 0.402005 0.701108
vt 0.373133 0.844331
vt 0.346446 0.818821
vt 0.264243 0.906567
vt 0.221302 0.875773
vt 0.235712 0.839811
vt 0.266986 0.842719
vt 0.544093 0.819286
vt 0.868687 0.764624
vt 0.916025 0.784359
vt 0.841124 0.786454
vt 0.645830 0.808062
vt 0.494884 0.913455
vt 0.099174 0.939328
vt 0.113252 0.923296
vt 0.113252 0.963961
vt 0.809610 0.872291
vt 0.964482 0.648894
vt 0.481815 0.934802
vt 0.426784 0.941853
vt 0.956781 0.225951
vt 0.680660 0.341817
vt 0.680660 0.377852
vt 0.650501 0.363215
vt 0.477464 0.820401
vt 0.284272 0.939835
vt 0.375645 0.927854
vt 0.326989 0.970440
vt 0.746224 0.247487
vt 0.764734 0.301811
vt 0.664846 0.218768
vt 0.454707 0.339516
vt 0.309341 0.318121
vt 0.500814 0.224338
vt 0.144835 0.355653
vt 0.040210 0.206026
vt 0.142467 0.193238
vt 0.694801 0.729154
vt 0.789732 0.634584
vt 0.789732 0.768682
vt 0.268509 0.147126
vt 0.357131 0.230912
vt 0.217263 0.083536
vt 0.261016 0.329173
vt 0.676182 0.079515
vt 0.764734 0.107290
vt 0.463970 0.041810
vt 0.500139 0.087783
vt 0.040453 0.291050
vt 0.701626 0.336755
vt 0.133907 0.035624
vt 0.581160 0.110633
vt 0.581093 0.035919
vt 0.647720 0.090929
vt 0.710128 0.035336
vt 0.520278 0.351063
vt 0.038045 0.135703
vt 0.260399 0.363612
vt 0.260399 0.533476
vt 0.204408 0.494769
vt 0.661266 0.577103
vt 0.648046 0.316068
vt 0.965811 0.321989
vt 0.965811 0.379460
vt 0.921225 0.321486
vt 0.955685 0.727337
vt 0.931767 0.695251
vt 0.955685 0.657909
vt 0.128513 0.913181
vt 0.079994 0.840287
vt 0.121845 0.825420
vt 0.896472 0.125161
vt 0.951263 0.143804
vt 0.915979 0.166681
vt 0.647998 0.902380
vt 0.606100 0.865337
vt 0.652982 0.839219
vt 0.579282 0.916612
vt 0.534697 0.869069
vt 0.596665 0.876976
vt 0.603632 0.973446
vt 0.635581 0.917269
vt 0.646168 0.973446
vt 0.062374 0.905596
vt 0.219462 0.711965
vt 0.257889 0.749286
vt 0.203942 0.777831
vt 0.030318 0.884212
vt 0.049478 0.824126
vt 0.514917 0.919158
vt 0.263852 0.805066
vn -0.1052 0.4877 -0.8666
vn 0.2339 -0.5210 0.8209
vn -0.0888 0.9807 0.1742
vn -0.6529 0.0502 -0.7558
vn 0.8518 0.4095 -0.3267
vn -0.7194 -0.6874 -0.0996
vn -0.1388 -0.7941 -0.5918
vn 0.9464 0.0280 0.3218
vn 0.8475 -0.1913 0.4952
vn -0.2167 0.8925 -0.3957
vn -0.7567 -0.2286 0.6126
vn -0.9107 0.0337 -0.4117
vn 0.4176 0.1622 -0.8940
vn 0.6198 -0.3290 -0.7124
vn -0.0652 0.6893 -0.7215
vn 0.2233 -0.9399 -0.2582
vn 0.6399 -0.7237 0.2584
vn -0.9738 0.2260 -0.0260
vn -0.2698 -0.9552 0.1216
vn 0.7398 0.5613 0.3711
vn 0.8464 0.4605 0.2673
vn 0.2398 0.1582 0.9578
vn -0.2508 0.8057 0.5365
vn -0.8073 0.2213 0.5470
vn 0.2008 -0.0819 0.9762
vn -0.9244 0.3262 0.1978
vn 0.9436 -0.1040 -0.3143
vn 0.0161 -0.8389 -0.5441
vn -0.7273 -0.6552 -0.2042
vn 0.2550 -0.5193 0.8157
vn 0.7194 0.3377 0.6069
vn 0.6097 0.7518 -0.2512
vn -0.9386 0.3051 0.1609
vn -0.9901 0.1349 -0.0375
vn -0.8912 -0.0029 -0.4536
vn 0.6098 -0.3596 -0.7063
vn 0.5955 0.7716 -0.2235
vn -0.2792 -0.4265 -0.8603
vn -0.8119 -0.2625 0.5215
vn 0.6955 0.1427 -0.7043
vn -0.2982 0.9537 -0.0398
vn 0.9102 0.0738 0.4076
vn -0.3336 0.9280 -0.1660
vn 0.1270 -0.1458 0.9811
vn 0.1618 -0.9457 -0.2821
vn 0.8900 -0.4009 -0.2172
vn -0.8165 0.4033 -0.4131
vn 0.7584 -0.5510 0.3481
vn -0.9837 -0.0501 0.1725
vn 0.6059 0.2328 -0.7607
vn -0.4243 -0.8735 -0.2387
vn -0.6847 -0.3513 0.6386
vn 0.9636 -0.0996 -0.2480
vn -0.3467 0.9263 -0.1473
vn -0.9192 0.0048 0.3937
vn -0.2170 -0.2474 -0.9443
vn -0.7303 0.5479 -0.4081
vn 0.8163 -0.4933 -0.3005
vn -0.1734 -0.9150 0.3643
vn 0.8181 0.3972 -0.4159
vn 0.6069 0.7640 0.2191
vn 0.1471 0.9437 0.2962
vn 0.8902 -0.1257 0.4378
vn -0.6028 0.3861 0.6983
vn 0.3109 0.7242 -0.6155
vn -0.8258 0.2040 0.5258
vn -0.1826 -0.9822 -0.0451
vn 0.2783 0.5905 -0.7575
vn -0.3863 -0.0351 0.9217
vn 0.9206 0.0600 -0.3859
vn -0.3656 0.9307 -0.0088
vn 0.8945 -0.1193 0.4309
vn 0.4296 -0.2041 -0.8797
vn -0.0404 -0.8845 -0.4647
vn 0.1539 0.9059 0.3945
vn -0.6631 0.1105 -0.7403
vn -0.2441 -0.9439 0.2224
vn 0.6536 -0.2258 -0.7224
vn -0.1444 -0.2727 0.9512
vn 0.5463 -0.5089 0.6653
vn 0.5906 0.6459 -0.4837
vn 0.6457 0.7220 -0.2486
vn -0.4923 -0.5517 -0.6732
vn -0.5584 -0.7227 0.4073
vn 0.5678 -0.6867 -0.4540
vn 0.9094 -0.3925 -0.1372
vn -0.1506 -0.7800 -0.6074
vn 0.7654 -0.0255 0.6430
vn 0.7738 0.5574 0.3009
vn -0.7858 -0.2888 0.5469
vn 0.2577 0.1229 0.9584
vn 0.1345 0.5527 -0.8224
vn 0.2336 0.5219 -0.8204
vn -0.8177 0.3217 -0.4774
vn -0.8831 0.1455 0.4460
vn -0.0704 0.9850 0.1572
vn -0.1458 0.9892 -0.0165
vn -0.8855 -0.2166 0.4110
vn 0.8861 0.0822 -0.4561
vn 0.6522 -0.4188 0.6318
vn -0.1294 -0.3787 0.9164
vn 0.1477 0.9049 0.3992
vn 0.1429 0.8423 -0.5197
vn 0.2284 -0.0617 -0.9716
vn -0.9536 0.0563 0.2956
vn -0.8902 -0.2655 0.3701
vn -0.5106 -0.7482 0.4237
vn 0.9163 -0.3867 -0.1045
vn 0.1278 -0.0080 -0.9918
vn 0.3556 -0.8362 0.4175
vn 0.7147 -0.3934 -0.5784
vn -0.7170 -0.2935 -0.6323
vn -0.6909 -0.3843 -0.6123
vn -0.1909 0.9698 0.1518
vn 0.7299 -0.0721 0.6797
vn 0.2180 0.5597 -0.7995
vn -0.0990 0.8818 -0.4611
vn 0.0883 -0.9299 -0.3571
vn -0.9871 -0.0727 -0.1428
vn -0.2531 0.9673 0.0156
vn -0.0068 -0.9330 0.3599
vn 0.7762 0.4393 -0.4523
vn -0.0511 0.8889 0.4553
vn -0.0731 0.9607 -0.2677
vn -0.1507 -0.4933 -0.8567
vn 0.4358 0.4932 -0.7529
vn -0.1171 -0.9730 0.1989
vn 0.2646 -0.9390 0.2195
vn 0.5757 -0.5938 0.5620
vn 0.9395 0.2305 0.2533
vn -0.0909 -0.3839 0.9189
vn 0.4220 -0.8833 -0.2044
vn 0.1665 0.9771 0.1324
vn 0.0710 0.9946 -0.0763
vn -0.9078 0.3518 0.2283
vn -0.6388 0.2165 -0.7383
vn 0.3811 -0.8872 -0.2600
vn 0.7473 0.6115 -0.2600
vn -0.0068 -0.6139 0.7894
vn -0.6845 -0.3242 0.6530
vn 0.7023 -0.7119 0.0058
vn 0.5907 0.5007 -0.6328
vn 0.1499 -0.4280 -0.8913
vn -0.4804 0.8123 -0.3308
vn -0.0922 0.1633 0.9823
vn -0.6011 -0.7555 0.2606
vn 0.9241 0.3093 -0.2245
vn -0.5210 -0.4048 -0.7515
vn 0.7123 -0.7018 0.0135
vn -0.0017 0.4251 0.9052
vn -0.6401 0.6730 -0.3706
vn 0.9374 -0.1281 -0.3238
usemtl Material
s off
f 2/1/1 8/2/1 17/3/1
f 6/4/2 23/5/2 11/6/2
f 25/7/3 10/8/3 13/9/3
f 16/10/4 15/11/4 17/3/4
f 9/12/5 20/13/5 21/14/5
f 11/15/6 5/16/6 22/17/6
f 22/18/7 15/19/7 12/20/7
f 9/12/8 21/14/8 24/21/8
f 21/22/9 18/23/9 23/24/9
f 3/25/10 10/8/10 25/7/10
f 14/26/11 1/27/11 19/28/11
f 5/29/12 17/3/12 15/11/12
f 12/30/13 20/13/13 7/31/13
f 20/13/14 12/30/14 16/32/14
f 16/10/15 17/3/15 8/2/15
f 9/33/16 6/34/16 7/35/16
f 6/36/17 9/37/17 24/38/17
f 1/39/18 10/40/18 3/41/18
f 6/34/19 11/42/19 22/18/19
f 4/43/20 25/44/20 18/45/20
f 25/46/21 13/47/21 18/48/21
f 13/49/22 14/50/22 18/51/22
f 14/52/23 13/9/23 10/8/23
f 10/53/24 1/27/24 14/26/24
f 14/50/25 23/5/25 18/51/25
f 11/15/26 19/28/26 5/16/26
f 21/14/27 20/13/27 8/54/27
f 7/35/28 22/18/28 12/20/28
f 15/55/29 22/17/29 5/16/29
f 24/56/30 23/5/30 6/4/30
f 24/57/31 21/22/31 23/24/31
f 2/58/32 25/59/32 4/60/32
f 11/15/33 14/26/33 19/28/33
f 5/16/34 1/27/34 3/61/34
f 5/29/35 3/41/35 17/3/35
f 8/54/36 20/13/36 16/32/36
f 8/54/37 2/58/37 4/60/37
f 15/11/38 16/10/38 12/62/38
f 5/16/39 19/28/39 1/27/39
f 7/31/40 20/13/40 9/12/40
f 17/63/41 3/25/41 2/64/41
f 18/65/42 21/14/42 4/60/42
f 25/7/43 2/64/43 3/25/43
f 11/6/44 23/5/44 14/50/44
f 6/34/45 22/18/45 7/35/45
f 40/66/46 35/67/46 30/68/46
f 26/69/47 39/70/47 27/71/47
f 30/72/48 35/67/48 34/73/48
f 37/74/49 33/75/49 27/76/49
f 31/77/50 39/78/50 40/66/50
f 33/79/51 37/80/51 31/81/51
f 34/82/52 29/83/52 33/75/52
f 40/66/53 38/84/53 35/67/53
f 27/85/54 32/86/54 41/87/54
f 29/83/55 27/76/55 33/75/55
f 37/88/56 39/89/56 31/90/56
f 37/91/57 27/71/57 39/70/57
f 30/68/58 31/77/58 40/66/58
f 30/92/59 34/93/59 33/79/59
f 28/94/60 41/95/60 38/84/60
f 38/84/61 41/95/61 36/96/61
f 36/97/62 41/87/62 32/86/62
f 36/96/63 35/67/63 38/84/63
f 34/98/64 36/99/64 29/100/64
f 26/101/65 41/95/65 28/94/65
f 29/83/66 32/102/66 27/76/66
f 30/92/67 33/79/67 31/81/67
f 39/78/68 26/101/68 28/94/68
f 29/100/69 36/99/69 32/103/69
f 38/84/70 40/66/70 28/94/70
f 41/87/71 26/104/71 27/85/71
f 34/73/72 35/67/72 36/96/72
f 40/66/73 39/78/73 28/94/73
f 43/105/74 49/106/74 58/107/74
f 48/108/75 62/109/75 52/110/75
f 64/111/76 51/112/76 54/113/76
f 57/114/77 56/115/77 58/107/77
f 50/116/78 60/117/78 45/118/78
f 52/119/79 46/120/79 61/121/79
f 61/121/80 56/122/80 53/123/80
f 50/116/81 45/118/81 63/124/81
f 45/125/82 59/126/82 62/127/82
f 44/128/83 51/129/83 64/130/83
f 46/131/84 58/132/84 56/133/84
f 53/134/85 60/135/85 47/136/85
f 60/135/86 53/134/86 57/137/86
f 57/114/87 58/107/87 49/106/87
f 50/138/88 48/139/88 47/140/88
f 48/141/89 50/142/89 63/143/89
f 42/144/90 51/145/90 44/146/90
f 48/147/91 52/119/91 61/121/91
f 45/148/92 64/111/92 59/149/92
f 64/150/93 54/151/93 59/152/93
f 55/153/94 54/113/94 51/112/94
f 51/145/95 42/144/95 55/154/95
f 54/155/96 55/156/96 59/157/96
f 55/156/97 62/109/97 59/157/97
f 52/158/98 42/144/98 46/131/98
f 45/118/99 60/117/99 49/159/99
f 47/160/100 61/161/100 53/162/100
f 56/122/101 61/121/101 46/120/101
f 63/163/102 62/109/102 48/108/102
f 63/164/103 45/125/103 62/127/103
f 43/165/104 64/166/104 45/118/104
f 52/158/105 55/154/105 42/144/105
f 46/131/106 42/144/106 44/146/106
f 46/131/107 44/146/107 58/132/107
f 49/167/108 60/135/108 57/137/108
f 49/159/109 43/165/109 45/118/109
f 56/168/110 57/169/110 53/170/110
f 47/171/111 60/117/111 50/116/111
f 44/172/112 43/173/112 58/174/112
f 64/111/113 43/173/113 44/172/113
f 52/110/114 62/109/114 55/156/114
f 61/121/115 47/140/115 48/147/115
f 65/175/116 76/176/116 66/177/116
f 74/178/117 71/179/117 66/180/117
f 69/181/118 76/182/118 67/183/118
f 71/184/119 69/185/119 78/186/119
f 72/187/120 68/188/120 71/179/120
f 67/183/121 75/189/121 78/190/121
f 66/177/122 70/191/122 77/192/122
f 73/193/123 70/194/123 68/188/123
f 68/188/124 66/180/124 71/179/124
f 74/195/125 76/182/125 69/181/125
f 74/196/126 66/177/126 76/176/126
f 78/190/127 69/181/127 67/183/127
f 67/183/128 77/197/128 75/189/128
f 75/198/129 77/199/129 73/200/129
f 73/201/130 77/192/130 70/191/130
f 73/200/131 78/202/131 75/198/131
f 65/203/132 77/197/132 67/183/132
f 72/187/133 73/193/133 68/188/133
f 68/188/134 70/194/134 66/180/134
f 72/204/135 71/205/135 78/206/135
f 69/185/136 71/184/136 74/207/136
f 76/182/137 65/203/137 67/183/137
f 77/192/138 65/175/138 66/177/138
f 72/208/139 78/202/139 73/200/139
f 81/209/140 86/210/140 80/211/140
f 79/212/141 83/213/141 86/214/141
f 84/215/142 79/216/142 85/217/142
f 85/218/143 79/219/143 82/220/143
f 80/221/144 84/222/144 85/223/144
f 83/224/145 80/225/145 86/226/145
f 86/227/146 81/228/146 82/229/146
f 84/215/147 83/230/147 79/216/147
f 82/231/148 81/232/148 85/233/148
f 86/234/149 82/235/149 79/216/149
f 84/236/150 80/225/150 83/224/150
f 80/237/151 85/233/151 81/232/151
f 21/14/152 8/54/152 4/60/152
