# Blender v2.81 (sub 16) OBJ File: 'geiser.blend'
# www.blender.org
mtllib geiser.mtl
o Plane
v -1.772911 0.000000 1.806131
v 1.881043 0.009539 1.718327
v -1.795058 0.000000 -1.883645
v 1.795058 0.000000 -1.728618
v 0.026383 0.004770 1.967086
v -1.972231 0.000000 0.000000
v 1.998614 0.004770 -0.005145
v 0.000000 0.000000 -1.972231
v 0.001068 0.832010 -0.016719
v -2.175242 0.000000 1.336770
v 1.025689 0.007154 1.964513
v 2.003878 0.002385 -0.804133
v -0.986116 0.000000 -1.972231
v -2.119875 0.000000 -0.930749
v -0.972924 0.002385 1.969658
v 2.011805 0.007154 0.978397
v 0.830646 -0.021330 -2.156295
v 0.129961 0.812839 -0.807552
v 0.359594 0.528606 0.599889
v -0.744880 0.475126 -0.026684
v 0.992876 0.457165 -0.032617
v 1.160195 0.395292 0.779709
v -1.029828 0.326854 1.216734
v -0.947175 0.596117 -0.967896
v 0.805010 0.431553 -0.913786
v -1.972231 0.000000 1.479173
v 1.525343 0.008347 1.963227
v 1.978827 0.001192 -1.480460
v -1.471787 -0.000937 -2.026230
v -2.212153 0.000000 -0.437691
v -0.473271 0.003577 1.968372
v 2.254359 0.005962 0.569676
v 0.493058 0.000000 -1.972231
v 0.068854 0.035822 -1.668441
v 0.149488 1.098942 0.245827
v -1.484504 0.133408 0.079708
v 0.307907 0.919356 -0.315067
v -1.972231 0.000000 0.493058
v 0.526036 0.005962 1.965799
v 2.185801 0.003577 -0.358501
v -0.539197 0.000000 -2.156786
v -2.082964 0.000000 -1.451490
v -1.472578 0.001192 1.970945
v 2.018401 0.008347 1.470169
v 1.510066 -0.013861 -2.000612
v -0.223203 1.053387 -0.170259
v 0.077748 0.057916 1.718462
v -0.140875 1.080792 0.129228
v 1.482382 0.264204 -0.009555
v 0.940743 0.423452 0.477882
v 1.133022 0.575432 0.949491
v 0.575195 0.567484 1.007380
v 1.513801 0.006260 0.979362
v -0.736538 0.540410 0.399502
v -0.974573 0.002087 1.476922
v -1.474227 0.000894 0.985151
v -0.292943 0.266015 1.137403
v -0.871317 0.137153 -1.681299
v -0.831504 0.811101 -0.436762
v -1.638598 0.200974 -0.903823
v -0.343725 0.905218 -0.593182
v 0.856596 0.367484 -1.422509
v 0.925953 0.285725 -0.611548
v 0.516298 0.672535 -0.939247
v 1.490716 0.002087 -0.988367
v 1.295817 0.401989 -0.570142
v 0.338373 0.904406 -0.597830
v 0.497180 0.000745 -1.479977
v -0.279103 0.905027 -0.101928
v -1.581836 0.057212 -0.514893
v -1.498068 0.088668 -1.610698
v -0.426419 0.097838 1.654034
v -1.596791 0.140880 1.438851
v -1.663254 0.014243 0.433016
v 1.519572 0.007303 1.471294
v 0.521914 0.005217 1.473545
v 0.548619 1.050328 0.268918
v 1.353327 0.358548 0.148844
v -0.297511 0.883262 0.350884
v -0.326739 0.104707 -1.657637
v 1.484944 0.001043 -1.480299
vt 0.875000 0.875000
vt 1.000000 0.875000
vt 1.000000 1.000000
vt 0.875000 1.000000
vt 0.375000 0.875000
vt 0.500000 0.875000
vt 0.500000 1.000000
vt 0.375000 1.000000
vt 0.375000 0.375000
vt 0.500000 0.375000
vt 0.500000 0.500000
vt 0.375000 0.500000
vt 0.875000 0.375000
vt 1.000000 0.375000
vt 1.000000 0.500000
vt 0.875000 0.500000
vt 0.625000 0.375000
vt 0.750000 0.375000
vt 0.712500 0.488743
vt 0.625000 0.500000
vt 0.625000 0.125000
vt 0.750000 0.125000
vt 0.750000 0.250000
vt 0.625000 0.250000
vt 0.875000 0.125000
vt 1.000000 0.125000
vt 1.000000 0.250000
vt 0.875000 0.250000
vt 0.125000 0.375000
vt 0.250000 0.375000
vt 0.250000 0.500000
vt 0.125000 0.500000
vt 0.125000 0.125000
vt 0.250000 0.125000
vt 0.250000 0.250000
vt 0.125000 0.250000
vt 0.375000 0.125000
vt 0.500000 0.125000
vt 0.500000 0.250000
vt 0.375000 0.250000
vt 0.125000 0.875000
vt 0.250000 0.875000
vt 0.250000 1.000000
vt 0.125000 1.000000
vt 0.125000 0.625000
vt 0.250000 0.625000
vt 0.250000 0.750000
vt 0.125000 0.750000
vt 0.375000 0.625000
vt 0.503968 0.619044
vt 0.500000 0.750000
vt 0.375000 0.750000
vt 0.625000 0.875000
vt 0.750000 0.875000
vt 0.750000 1.000000
vt 0.625000 1.000000
vt 0.625000 0.625000
vt 0.750000 0.625000
vt 0.750000 0.750000
vt 0.590000 0.787523
vt 0.800000 0.625000
vt 1.000000 0.625000
vt 1.000000 0.750000
vt 0.875000 0.750000
vt 0.000000 0.625000
vt 0.000000 0.750000
vt 0.000000 0.500000
vt 0.000000 0.875000
vt 0.000000 1.000000
vt 0.250000 0.000000
vt 0.375000 0.000000
vt 0.500000 0.000000
vt 0.000000 0.125000
vt 0.000000 0.250000
vt 0.000000 0.000000
vt 0.125000 0.000000
vt 0.000000 0.375000
vt 0.750000 0.000000
vt 0.875000 0.000000
vt 1.000000 0.000000
vt 0.625000 0.000000
vn -0.0115 0.9998 -0.0186
vn 0.1104 0.9717 -0.2087
vn -0.0049 0.9899 -0.1420
vn 0.4367 0.8793 -0.1900
vn 0.7392 0.6476 -0.1849
vn 0.0416 0.8541 0.5185
vn -0.0019 1.0000 -0.0022
vn -0.4642 0.8848 -0.0403
vn -0.2232 0.9486 0.2245
vn -0.0341 0.9338 0.3562
vn -0.0468 0.9528 -0.3000
vn -0.6226 0.7805 0.0563
vn -0.2378 0.9358 -0.2601
vn -0.4662 0.8464 -0.2575
vn 0.7001 0.7132 -0.0334
vn 0.3515 0.8511 -0.3899
vn 0.2631 0.9180 -0.2967
vn 0.0925 0.9945 -0.0499
vn 0.4027 0.9053 0.1356
vn 0.0272 0.9059 -0.4225
vn 0.3080 0.9056 0.2916
vn 0.6586 0.7292 -0.1856
vn 0.0483 0.9976 -0.0502
vn 0.1951 0.6763 -0.7103
vn -0.0846 0.8146 -0.5738
vn -0.2362 0.9585 -0.1597
vn -0.5918 0.7085 0.3845
vn 0.2960 0.9404 -0.1674
vn -0.2174 0.9647 0.1485
vn -0.1680 0.9856 -0.0179
vn -0.5610 0.7707 0.3020
vn -0.1467 0.9765 -0.1576
vn -0.2747 0.9531 -0.1269
vn -0.3290 0.8577 -0.3951
vn -0.0633 0.8455 0.5302
vn -0.1097 0.9880 0.1089
vn 0.0211 0.9663 0.2567
vn -0.1987 0.9597 -0.1986
vn -0.2424 0.9390 0.2440
vn 0.1170 0.9859 0.1197
vn -0.1837 0.9780 0.0989
vn -0.0111 0.9999 0.0095
vn -0.5355 0.8388 0.0982
vn 0.8278 0.5473 -0.1231
vn 0.3498 0.8687 0.3506
vn -0.0037 1.0000 -0.0037
vn -0.1119 0.8431 0.5259
vn 0.0738 0.9944 0.0750
vn -0.3115 0.8961 0.3161
vn -0.1857 0.9194 -0.3468
vn -0.4575 0.5886 0.6665
vn 0.6197 0.7525 0.2231
vn 0.2704 0.9626 -0.0140
vn 0.5203 0.8469 0.1100
vn 0.1546 0.9478 0.2788
vn -0.6726 0.7400 -0.0029
vn -0.1661 0.8875 0.4299
vn 0.1092 0.6987 0.7070
vn -0.0152 0.9578 -0.2869
vn 0.0039 0.8161 -0.5779
vn -0.0206 0.7736 -0.6334
vn 0.2734 0.9156 -0.2949
vn 0.5154 0.8563 -0.0321
vn -0.0001 1.0000 -0.0019
usemtl texturaGeiser
s off
f 81/1/1 28/2/1 4/3/1 45/4/1
f 80/5/2 34/6/2 8/7/2 41/8/2
f 79/9/3 35/10/3 9/11/3 48/12/3
f 78/13/4 32/14/4 7/15/4 49/16/4
f 77/17/5 50/18/5 21/19/5 37/20/5
f 76/21/6 51/22/6 22/23/6 52/24/6
f 75/25/7 44/26/7 16/27/7 53/28/7
f 74/29/8 54/30/8 20/31/8 36/32/8
f 73/33/9 55/34/9 23/35/9 56/36/9
f 72/37/10 47/38/10 19/39/10 57/40/10
f 71/41/11 58/42/11 13/43/11 29/44/11
f 70/45/12 59/46/12 24/47/12 60/48/12
f 69/49/13 46/50/13 18/51/13 61/52/13
f 68/53/14 62/54/14 17/55/14 33/56/14
f 67/57/15 63/58/15 25/59/15 64/60/15
f 66/61/16 40/62/16 12/63/16 65/64/16
f 63/58/17 66/61/17 65/64/17 25/59/17
f 21/19/18 49/16/18 66/61/18 63/58/18
f 49/16/19 7/15/19 40/62/19 66/61/19
f 46/50/20 67/57/20 64/60/20 18/51/20
f 9/11/21 37/20/21 67/57/21 46/50/21
f 37/20/22 21/19/22 63/58/22 67/57/22
f 34/6/23 68/53/23 33/56/23 8/7/23
f 18/51/24 64/60/24 68/53/24 34/6/24
f 64/60/25 25/59/25 62/54/25 68/53/25
f 59/46/26 69/49/26 61/52/26 24/47/26
f 20/31/27 48/12/27 69/49/27 59/46/27
f 48/12/28 9/11/28 46/50/28 69/49/28
f 30/65/29 70/45/29 60/48/29 14/66/29
f 6/67/30 36/32/30 70/45/30 30/65/30
f 36/32/31 20/31/31 59/46/31 70/45/31
f 42/68/32 71/41/32 29/44/32 3/69/32
f 14/66/33 60/48/33 71/41/33 42/68/33
f 60/48/34 24/47/34 58/42/34 71/41/34
f 55/34/35 72/37/35 57/40/35 23/35/35
f 15/70/36 31/71/36 72/37/36 55/34/36
f 31/71/37 5/72/37 47/38/37 72/37/37
f 26/73/38 73/33/38 56/36/38 10/74/38
f 1/75/39 43/76/39 73/33/39 26/73/39
f 43/76/40 15/70/40 55/34/40 73/33/40
f 38/77/41 74/29/41 36/32/41 6/67/41
f 10/74/42 56/36/42 74/29/42 38/77/42
f 56/36/43 23/35/43 54/30/43 74/29/43
f 51/22/44 75/25/44 53/28/44 22/23/44
f 11/78/45 27/79/45 75/25/45 51/22/45
f 27/79/46 2/80/46 44/26/46 75/25/46
f 47/38/47 76/21/47 52/24/47 19/39/47
f 5/72/48 39/81/48 76/21/48 47/38/48
f 39/81/49 11/78/49 51/22/49 76/21/49
f 35/10/50 77/17/50 37/20/50 9/11/50
f 19/39/51 52/24/51 77/17/51 35/10/51
f 52/24/52 22/23/52 50/18/52 77/17/52
f 50/18/53 78/13/53 49/16/53 21/19/53
f 22/23/54 53/28/54 78/13/54 50/18/54
f 53/28/55 16/27/55 32/14/55 78/13/55
f 54/30/56 79/9/56 48/12/56 20/31/56
f 23/35/57 57/40/57 79/9/57 54/30/57
f 57/40/58 19/39/58 35/10/58 79/9/58
f 58/42/59 80/5/59 41/8/59 13/43/59
f 24/47/60 61/52/60 80/5/60 58/42/60
f 61/52/61 18/51/61 34/6/61 80/5/61
f 62/54/62 81/1/62 45/4/62 17/55/62
f 25/59/63 65/64/63 81/1/63 62/54/63
f 65/64/64 12/63/64 28/2/64 81/1/64
